<?xml version="1.0" encoding="UTF-8" standalone="no"?>
<!-- Generator: visioncortex VTracer -->

<svg
   id="svg"
   version="1.1"
   style="display: block;"
   viewBox="0 0 600 600"
   sodipodi:docname="mb.svg"
   inkscape:version="1.4.2 (ebf0e940d0, 2025-05-08)"
   xmlns:inkscape="http://www.inkscape.org/namespaces/inkscape"
   xmlns:sodipodi="http://sodipodi.sourceforge.net/DTD/sodipodi-0.dtd"
   xmlns="http://www.w3.org/2000/svg"
   xmlns:svg="http://www.w3.org/2000/svg">
  <defs
     id="defs36" />
  <sodipodi:namedview
     id="namedview36"
     pagecolor="#ffffff"
     bordercolor="#000000"
     borderopacity="0.25"
     inkscape:showpageshadow="2"
     inkscape:pageopacity="0.0"
     inkscape:pagecheckerboard="0"
     inkscape:deskcolor="#d1d1d1"
     inkscape:zoom="1.9139024"
     inkscape:cx="373.58228"
     inkscape:cy="178.17001"
     inkscape:window-width="1920"
     inkscape:window-height="1021"
     inkscape:window-x="1920"
     inkscape:window-y="35"
     inkscape:window-maximized="1"
     inkscape:current-layer="svg" />
  <path
     id="path1"
     style="fill: #2E251E;"
     d="M 265.17188 30.359375 C 248.35253 29.855152 231.48488 36.562499 219 49 L 217.62109 50.59375 C 215.63853 52.314123 214.60146 52.419883 212.00781 52.554688 L 209.64062 52.71875 L 207.125 52.875 C 189.89204 54.339664 173.24716 62.065144 161.94531 75.429688 C 156.21415 82.891011 151.97644 91.070673 149 100 C 147.03125 101.54297 147.03125 101.54297 144.5 103.1875 C 128.38768 114.21172 116.14026 130.57948 112 150 C 111.27924 154.39479 110.94586 158.40202 111.18359 162.84766 C 111.77332 173.9707 110.83888 181.07637 105.04688 190.57422 C 96.17747 205.41862 96.475807 227.22815 100.5 243.6875 C 102.95107 251.94326 106.89501 259.46636 111 267 L 112 269 L 109.17578 267.57422 C 92.102786 259.14604 74.688367 255.65546 56.203125 261.75391 C 38.278305 268.7271 25.608274 282.35398 17.507812 299.5625 C 7.0515757 323.40055 10.842444 352.82295 19.949219 376.47852 C 28.335955 396.61292 42.722605 413.71393 62 424 L 64.703125 425.45703 C 85.083373 435.55563 103.71902 433.7807 125 428 L 125.14648 429.68555 C 125.66239 434.98741 126.55264 439.95638 128.0625 445.0625 L 128.69727 447.23438 C 131.1909 455.27956 134.99579 462.61755 139 470 C 141.45708 469.62318 142.66843 469.40832 144.26562 467.44141 C 146.28866 463.91244 146.28866 463.91244 147 460 L 149 460 L 149.30469 461.73828 C 154.38844 484.68482 171.93285 506.70808 190 521 L 191.51758 522.20117 C 222.07653 546.14271 258.72021 560.18979 297.56641 560.18555 C 299.79764 560.18773 302.02862 560.2057 304.25977 560.22461 C 348.28756 560.40155 389.70806 538.95582 420.6875 508.6875 C 434.01098 495.29261 443.53957 478.69595 450 461 L 456 470 C 462.44063 466.77968 464.39795 460.56574 466.72461 453.93359 C 469.38469 445.74945 471.51941 437.47975 473 429 L 474.92969 429.875 C 491.36945 436.15438 512.88619 435.25792 528.90625 428.1543 C 537.43391 424.18343 545.00739 419.32722 552 413 L 554.25781 410.98828 C 575.18275 391.26635 585.71954 363.09093 587.16406 334.78516 C 587.70468 312.93918 580.29931 292.7084 565.3125 276.75 C 552.02199 264.12807 536.67473 258.22846 518.56641 258.54883 C 505.96481 259.0382 496.72784 262.68442 486 269 L 487.60938 265.55469 C 493.13995 253.538 498.45592 241.42057 499 228 L 499.15625 225.125 C 499.57134 211.01201 497.06295 192.31968 487.40039 181.15039 C 485.56379 178.32918 485.72533 176.60642 485.88281 173.26562 L 485.99219 169.85938 L 486.125 166.25 C 486.49474 145.15122 479.81725 127.49296 465 112 C 460.82823 108.25675 456.65129 104.87238 451.6875 102.25 C 448.0184 99.178199 447.14889 95.773648 445.46875 91.363281 C 439.41431 77.499267 428.90042 67.483777 416 60 L 414.11719 58.816406 C 405.27237 53.719727 392.87488 51.14238 382.78516 52.25 L 381 52 C 379.94922 50.207031 379.94922 50.207031 379 48 C 370.05621 37.685788 355.23019 31.842319 341.87305 30.839844 C 325.89592 30.010534 312.50284 32.99811 299 42 C 296.87109 41.023438 296.87109 41.023438 294.4375 39.375 C 285.33761 33.561179 275.26348 30.661909 265.17188 30.359375 z "
     transform="translate(0,0)" />
  <path
     d="M0 0 C1.52318848 0.01341431 1.52318848 0.01341431 3.07714844 0.02709961 C32.39880669 0.47982601 56.58386679 13.74841623 76.95703125 34.21875 C78.6875 36.25 78.6875 36.25 78.6875 38.25 C82.74467136 34.7970882 86.65979598 31.3194863 90.3125 27.4375 C104.45530706 13.23976942 122.27854923 5.207816 141.6875 1.25 C142.48470459 1.0756543 143.28190918 0.90130859 144.10327148 0.72167969 C160.74066138 -2.31501727 180.32269258 0.06434083 194.6875 9.25 C208.45489179 18.878728 219.8278645 32.82809031 223.28125 49.640625 C225.56391306 69.92120837 223.68521875 89.34173186 210.62109375 105.86328125 C200.71924386 117.21166225 190.15806783 124.76314869 176.6875 131.25 C177.12320313 131.88164062 177.55890625 132.51328125 178.0078125 133.1640625 C190.4750449 151.89189645 197.34448894 175.9159453 192.96875 198.453125 C192.06809524 202.45145723 190.91772523 206.34079746 189.6875 210.25 C189.336875 211.37148438 188.98625 212.49296875 188.625 213.6484375 C180.40577321 237.22163657 161.58393512 255.08826284 139.6875 266.25 C105.42557683 281.97224815 64.28933047 283.00519911 29.00390625 270.0078125 C3.74650633 260.0699111 -16.66961393 242.68523406 -28.05786133 217.78442383 C-37.12235961 196.90655791 -36.84535165 172.56372873 -28.921875 151.47265625 C-26.3550963 145.14352035 -23.45539939 139.43467301 -19.4140625 133.921875 C-18.12910343 132.30534516 -18.12910343 132.30534516 -18.3125 130.25 C-20.71192407 129.03506319 -23.11219631 127.91537102 -25.5625 126.8125 C-33.90929171 122.85363532 -39.94396033 117.86273215 -46.3125 111.25 C-46.98796875 110.59386719 -47.6634375 109.93773437 -48.359375 109.26171875 C-60.23609171 96.99086321 -64.6122116 79.50288786 -64.5546875 62.93774414 C-64.26916442 46.26141157 -58.43992267 30.41458005 -46.6484375 18.421875 C-32.81099829 5.55629607 -18.84297093 -0.18767271 0 0 Z "
     transform="translate(219.3125,263.75)"
     style="fill: #ECB98A;"
     id="path3" />
  <path
     d="M0 0 C6.65672693 4.71149743 12.28486596 10.72731484 14.62109375 18.64453125 C15.24217723 25.12277701 15.58280436 30.21408891 11.62109375 35.64453125 C8.08392361 37.41311632 4.47344552 37.28966193 0.62109375 36.64453125 C-7.8442146 32.35998815 -11.3318426 25.20532912 -14.37890625 16.64453125 C-15.38726687 15.41185777 -15.38726687 15.41185777 -17.4453125 15.546875 C-18.68087891 15.56427734 -18.68087891 15.56427734 -19.94140625 15.58203125 C-20.76769531 15.59105469 -21.59398437 15.60007812 -22.4453125 15.609375 C-23.08339844 15.62097656 -23.72148437 15.63257812 -24.37890625 15.64453125 C-26.18851337 24.8892633 -24.3634306 31.0799646 -19.25390625 38.89453125 C-14.16655632 43.76069205 -8.57133511 47.2325948 -1.69140625 48.83203125 C3.65442443 50.38616066 5.1753191 54.30356378 7.8125 58.9140625 C10.63253177 63.17151867 14.14757071 65.33713515 18.62109375 67.64453125 C19.21148437 67.98226562 19.801875 68.32 20.41015625 68.66796875 C27.27804178 71.96576401 38.43035098 72.04144551 45.62109375 69.64453125 C45.72945828 68.20870124 45.80685542 66.77051105 45.87109375 65.33203125 C45.9175 64.53152344 45.96390625 63.73101562 46.01171875 62.90625 C45.81207954 60.53190231 45.81207954 60.53190231 43.99609375 58.87890625 C40.99380128 57.31850424 38.74468681 57.27498277 35.37109375 57.20703125 C28.60821524 56.84188145 23.5556628 55.5791003 18.62109375 50.64453125 C18.76685434 46.41747404 21.75926759 44.43821869 24.62109375 41.64453125 C29.75449451 34.60987096 30.03434266 26.04433636 30.62109375 17.64453125 C43.3924685 16.66629829 51.91930872 21.70010549 61.62109375 29.64453125 C69.42319971 36.37185731 74.82328128 43.60101205 75.859375 54.046875 C76.15798512 64.24676808 74.08293283 74.98417953 67.30859375 82.91015625 C62.60036645 87.74916765 58.42253178 91.41221459 52.18359375 94.14453125 C48.10394323 95.99483306 48.10394323 95.99483306 46.30859375 100.20703125 C46.45398733 103.54107152 46.45398733 103.54107152 47.55859375 106.08203125 C50.1281075 108.02863258 52.13696553 108.20575996 55.3203125 108.01953125 C65.11610718 106.42293314 73.3582413 100.83592582 79.59375 93.2421875 C84.76411196 85.68550464 87.67565667 77.24348125 90.62109375 68.64453125 C101.2513351 73.11789073 106.52002337 85.15027782 110.65234375 95.13671875 C115.09869008 107.69353014 112.80244629 120.30137109 107.48828125 132.17578125 C105.3786562 136.25532108 102.96659788 139.43961964 99.80859375 142.76953125 C97.17677776 145.64216701 96.65590597 146.43217672 95.99609375 150.45703125 C96.42110316 153.54279146 96.42110316 153.54279146 97.74609375 155.58203125 C100.50359997 157.14461811 102.48998914 156.93722984 105.62109375 156.64453125 C108.14906542 155.12604256 108.14906542 155.12604256 110.30859375 152.95703125 C111.05496094 152.27253906 111.80132812 151.58804688 112.5703125 150.8828125 C114.72542734 148.68375558 114.72542734 148.68375558 116.265625 145.875 C116.71292969 145.13894531 117.16023437 144.40289062 117.62109375 143.64453125 C118.28109375 143.64453125 118.94109375 143.64453125 119.62109375 143.64453125 C120.65625 145.47265625 120.65625 145.47265625 121.68359375 147.89453125 C122.02519531 148.6834375 122.36679687 149.47234375 122.71875 150.28515625 C126.36169871 159.81044206 126.25475886 173.30783596 122.99609375 182.89453125 C118.60938216 192.64277922 111.74728764 199.71648968 101.75 203.82421875 C98.24252815 204.74378066 95.18176712 204.91030132 91.55859375 204.89453125 C90.37136719 204.8996875 89.18414062 204.90484375 87.9609375 204.91015625 C84.74621262 204.65448222 82.51238515 204.02185721 79.62109375 202.64453125 C80.74994817 199.77897773 81.92763414 196.95788077 83.18359375 194.14453125 C85.4051272 188.73558023 85.80100301 183.98542666 85.87109375 178.14453125 C85.896875 176.85546875 85.92265625 175.56640625 85.94921875 174.23828125 C85.6036205 170.45315757 85.02646389 168.56297347 82.62109375 165.64453125 C79.12109375 164.89453125 79.12109375 164.89453125 75.62109375 165.64453125 C73.05858334 168.04725464 72.63935724 169.47939085 72.25 173 C72.21712891 174.89685547 72.21712891 174.89685547 72.18359375 176.83203125 C71.89375449 184.68144855 69.94005665 190.1660869 65.62109375 196.64453125 C55.14451199 193.9290937 55.14451199 193.9290937 50.62109375 192.08203125 C41.40642815 188.53840481 31.79930755 188.32285833 22.04101562 188.38378906 C19.99188921 188.39455334 17.943632 188.38380893 15.89453125 188.37109375 C8.84184876 188.36469458 2.44932897 188.83515662 -4.37890625 190.64453125 C-7.19140625 190.64453125 -7.19140625 190.64453125 -9.37890625 189.64453125 C-13.89337233 184.09818721 -16.00827822 178.19746552 -15.81640625 171.07421875 C-14.07094706 161.38068647 -6.12404535 155.34805445 1.18359375 149.64453125 C2.98083616 147.56430598 2.98083616 147.56430598 2.55859375 144.01953125 C1.94600925 140.38936201 1.94600925 140.38936201 -1.37890625 138.64453125 C-8.78356649 138.33600374 -14.06513631 142.88545136 -19.37890625 147.64453125 C-21.72485694 150.47737737 -23.57603124 153.44498454 -25.37890625 156.64453125 C-26.24469671 158.12910725 -27.11930608 159.60858578 -28.00390625 161.08203125 C-28.36742187 161.72011719 -28.7309375 162.35820312 -29.10546875 163.015625 C-30.67804814 165.02717594 -32.00391343 165.73618512 -34.37890625 166.64453125 C-39.25988012 167.11688356 -41.40560713 167.16722893 -45.75390625 164.83203125 C-49.46614017 161.73850298 -50.69425845 159.31994969 -51.37890625 154.64453125 C-51.48015536 152.9190343 -51.53662874 151.19051564 -51.5559082 149.4621582 C-51.56874344 148.45373367 -51.58157867 147.44530914 -51.59480286 146.40632629 C-51.60218979 145.32606674 -51.60957672 144.24580719 -51.6171875 143.1328125 C-51.62525925 142.00940964 -51.63333099 140.88600677 -51.64164734 139.7285614 C-51.65546215 137.35234102 -51.66619591 134.976101 -51.67407227 132.59985352 C-51.68558594 130.18019765 -51.70602782 127.76056705 -51.7355957 125.34106445 C-51.77843809 121.83397257 -51.79446536 118.32763417 -51.8046875 114.8203125 C-51.82219559 113.7501741 -51.83970367 112.68003571 -51.85774231 111.57746887 C-51.82613273 100.51155731 -48.45491479 92.7838279 -40.7890625 84.84375 C-34.20948204 78.84001613 -28.07931192 77.05318187 -19.296875 76.00390625 C-16.90187617 75.70893986 -14.69633998 75.29543273 -12.37890625 74.64453125 C-11.12613254 69.44827073 -11.12613254 69.44827073 -12.62890625 64.70703125 C-18.09786102 61.38659443 -24.55120516 62.03958297 -30.57421875 63.328125 C-37.94833879 65.4287904 -43.91125918 68.58693712 -50.37890625 72.64453125 C-50.52459343 67.02937548 -50.6668121 61.41414498 -50.80615234 55.79882812 C-50.85375853 53.89841483 -50.90222674 51.99802289 -50.95166016 50.09765625 C-51.09583927 44.5423468 -51.21874815 38.98716172 -51.3203125 33.4309082 C-51.37941125 30.62051645 -51.46483282 27.81163664 -51.55078125 25.00195312 C-51.58837879 23.21096105 -51.62488242 21.4199456 -51.66015625 19.62890625 C-51.70758972 18.40255463 -51.70758972 18.40255463 -51.75598145 17.15142822 C-51.8393059 10.91924903 -49.97021787 7.61168196 -45.84375 2.88671875 C-33.22447088 -8.40931115 -14.32446663 -8.16188821 0 0 Z "
     transform="translate(357.37890625,53.35546875)"
     style="fill: #E79189;"
     id="path4" />
  <path
     d="M0 0 C3.86995296 3.55722949 6.83414412 6.91271292 7.12698364 12.3637085 C7.12777924 13.29523743 7.12857483 14.22676636 7.12939453 15.18652344 C7.13254669 16.24482361 7.13569885 17.30312378 7.13894653 18.39349365 C7.13591019 20.10910492 7.13591019 20.10910492 7.1328125 21.859375 C7.13376923 23.03711487 7.13472595 24.21485474 7.13571167 25.42828369 C7.13639279 27.92321832 7.13454322 30.41815471 7.13037109 32.91308594 C7.12504095 36.72074405 7.13030856 40.52828317 7.13671875 44.3359375 C7.13605758 46.76041693 7.13477562 49.18489628 7.1328125 51.609375 C7.13483673 52.74501892 7.13686096 53.88066284 7.13894653 55.05072021 C7.12298271 60.47423737 6.96361582 65.65848711 6 71 C2.77319966 69.89078738 0.12278877 68.45502712 -2.6875 66.5625 C-10.6431252 61.53632931 -19.642861 59.65003087 -29 61 C-31.82329959 62.21481924 -31.82329959 62.21481924 -34 64 C-34.66666667 67 -34.66666667 67 -34 70 C-31.79771594 72.87194411 -29.95052108 73.4586677 -26.4375 74 C-14.17953695 76.21249988 -5.82223431 79.56254307 1.67578125 89.875 C2.11277344 90.57625 2.54976562 91.2775 3 92 C3.51336914 92.75990234 4.02673828 93.51980469 4.55566406 94.30273438 C6.74262434 99.90099781 6.44769297 105.32213917 6.43359375 111.28125 C6.4388356 112.56809692 6.44407745 113.85494385 6.44947815 115.18078613 C6.45838548 117.89747972 6.45601306 120.61387895 6.44604492 123.33056641 C6.43454832 126.8008111 6.45478748 130.27003922 6.48396206 133.74015045 C6.50678418 137.06640326 6.49985533 140.39242087 6.49609375 143.71875 C6.50732773 144.95951294 6.51856171 146.20027588 6.53013611 147.4786377 C6.44343782 158.21228649 6.44343782 158.21228649 2 163 C-2.00918236 165.74688534 -6.31011213 165.63262876 -11 165 C-15.25704608 162.92097749 -16.70653801 159.80988929 -18.8125 155.75 C-23.05986844 147.60287384 -29.49715632 140.80251394 -38 137 C-41.31799847 136.49917004 -42.96736406 136.41483964 -45.875 138.0625 C-47.66509947 141.14544908 -47.37972211 143.50432289 -47 147 C-44.77470591 149.60191873 -44.77470591 149.60191873 -41.75 151.625 C-36.28508917 155.62970978 -31.99463374 159.34114696 -30 166 C-29.11473023 174.03948481 -29.64993955 180.14535929 -34 187 C-34.33 187.33 -34.66 187.66 -35 188 C-36.87819755 187.91604335 -38.75341497 187.76438699 -40.625 187.5859375 C-61.02382069 185.86749813 -80.34544033 185.91421316 -100 192 C-101.35315403 192.39153762 -102.70724828 192.77984864 -104.0625 193.1640625 C-105.031875 193.43992188 -106.00125 193.71578125 -107 194 C-112.01043382 187.86221857 -112.89667051 182.84699599 -112.60546875 174.9609375 C-111.59444329 166.3428463 -107.24339849 158.34511906 -100.5625 152.8125 C-96.58250014 150.10445886 -92.58767989 148.41801015 -88 147 C-87.43732422 148.22976562 -87.43732422 148.22976562 -86.86328125 149.484375 C-86.09564453 151.10085937 -86.09564453 151.10085937 -85.3125 152.75 C-84.81363281 153.81734375 -84.31476563 154.8846875 -83.80078125 155.984375 C-81.86442069 159.22704388 -80.18050683 160.98453199 -77 163 C-73.29320175 163.01888555 -73.29320175 163.01888555 -70 162 C-68.43571762 158.87143524 -68.71992914 156.47287869 -69 153 C-69.88290426 151.14918662 -69.88290426 151.14918662 -71 149.3125 C-73.85299239 144.01554639 -73.86026878 138.87355926 -73 133 C-69.81950482 123.0935396 -64.77790725 115.52683049 -56 110 C-49.93633156 107.97877719 -42.69321534 108.15213591 -36.625 110.0625 C-34.25953775 111.80843642 -32.49714275 113.55202701 -30.5 115.6875 C-28.03467975 118.26735947 -27.37413114 118.9280517 -23.75 119.625 C-21.06936523 119.14269574 -21.06936523 119.14269574 -19.125 118 C-17.24780253 114.66276005 -17.10723822 111.62927073 -18 108 C-22.38702357 100.64841203 -28.70852731 97.58132497 -36.4453125 94.73046875 C-40.36860554 92.82055796 -42.13138307 90.98030858 -44.875 87.625 C-50.47180161 81.0942214 -56.97892986 76.1746456 -63.88671875 71.10546875 C-76.21999356 61.93087694 -76.21999356 61.93087694 -78.8125 55.6875 C-80.49974882 51.67986934 -80.49974882 51.67986934 -84 49 C-87.82748905 49.18232592 -87.82748905 49.18232592 -91 51 C-91.94529173 58.37088232 -91.43620979 63.74108102 -86.99609375 69.76953125 C-81.58531521 75.81562625 -75.97091663 80.69901283 -69.25 85.25 C-67.75335995 86.27334363 -66.25849576 87.29929045 -64.765625 88.328125 C-64.11368164 88.7705957 -63.46173828 89.21306641 -62.79003906 89.66894531 C-60.97379648 91.01948467 -59.40684844 92.22058243 -58 94 C-59 97 -59 97 -61.6953125 98.54296875 C-62.82710938 99.08566406 -63.95890625 99.62835938 -65.125 100.1875 C-74.50455565 104.98456033 -78.88996695 110.72875763 -82.859375 120.38671875 C-85.19010534 125.72664545 -87.16580151 128.85647476 -92.484375 131.26953125 C-98.89703934 133.13159372 -105.57148791 133.13051425 -111.625 130.3125 C-115.27044307 126.76298965 -116.90244252 123.70953655 -118.0625 118.8125 C-118.64987346 115.00492475 -118.64987346 115.00492475 -121 113 C-124.5 112.58333333 -124.5 112.58333333 -128 113 C-131.12292665 117.68438998 -130.45601314 122.51359186 -130 128 C-128.64943039 133.76102348 -125.03602497 138.96125558 -120.12109375 142.26171875 C-118.44353846 143.22758392 -116.72456219 144.12081143 -115 145 C-115.62653805 148.37719288 -116.90461176 150.58116593 -118.875 153.375 C-125.17991981 162.6362937 -128.13781163 171.72532111 -127 183 C-125.80661855 188.60725806 -123.9660514 193.10601518 -121 198 C-121.33 198.99 -121.66 199.98 -122 201 C-129.15431653 204.16120963 -138.42596205 204.40546571 -145.84765625 202.125 C-156.07971569 197.31735538 -162.53629391 190.34897463 -167 180 C-168.80063113 174.77018056 -169.35391984 170.15368284 -169.3125 164.6875 C-169.30730347 163.5725415 -169.30730347 163.5725415 -169.30200195 162.43505859 C-169.17770261 156.1239484 -168.84047204 149.11000589 -164.39453125 144.2421875 C-163.93433594 143.83226562 -163.47414063 143.42234375 -163 143 C-162.27554688 143.78246094 -161.55109375 144.56492188 -160.8046875 145.37109375 C-159.82881262 146.39388569 -158.85221141 147.41598496 -157.875 148.4375 C-157.1634375 149.2119043 -157.1634375 149.2119043 -156.4375 150.00195312 C-153.11837638 153.4332093 -150.7929388 154.84731635 -146 155 C-142.88214887 154.35355339 -142.88214887 154.35355339 -142 152 C-141.63406869 148.46266396 -141.59057689 146.62073826 -143.57421875 143.61328125 C-144.27160156 142.85402344 -144.96898437 142.09476563 -145.6875 141.3125 C-155.60682023 129.63754787 -158.10801376 116.10364193 -157.23828125 101.20947266 C-156.19742696 91.55810862 -150.89424116 83.43300323 -145 76 C-144.18789062 74.95972656 -144.18789062 74.95972656 -143.359375 73.8984375 C-140.76819928 70.7183582 -138.79775696 68.69150631 -135 67 C-134.70867187 67.96679688 -134.41734375 68.93359375 -134.1171875 69.9296875 C-129.4222962 85.0373576 -123.20324872 95.72357916 -109.234375 103.8359375 C-106.08912023 105.47454925 -103.50697092 106.15429005 -100 106.1875 C-99.319375 106.20167969 -98.63875 106.21585937 -97.9375 106.23046875 C-95.67385868 106.10940411 -95.67385868 106.10940411 -93 104 C-92.60292063 100.92263488 -92.39311261 98.95194739 -93 96 C-95.10854802 93.61938127 -97.23150101 92.38571052 -100.0546875 90.96875 C-110.27514254 85.73474534 -116.01468154 78.03663967 -119.578125 67.25 C-121.09914813 59.13787664 -121.50279431 48.44261299 -117.4609375 41.046875 C-108.94784145 29.11943561 -96.86067175 17.80390033 -82 15 C-79.30816125 14.86636262 -76.69856542 14.90531349 -74 15 C-73.98582031 15.96679688 -73.97164063 16.93359375 -73.95703125 17.9296875 C-73.60727286 27.47714628 -72.65110886 35.34889114 -65.5625 42.4375 C-57.55457092 47.32038359 -50.22651169 48.36415286 -41 47 C-32.13318957 44.27098168 -25.34214931 39.17936958 -20.9140625 30.9921875 C-18.89297815 26.26396265 -18.56753324 22.10310778 -19 17 C-19.99 15.515 -19.99 15.515 -21 14 C-22.90457929 13.56172799 -22.90457929 13.56172799 -25 13.6875 C-26.051875 13.69330078 -26.051875 13.69330078 -27.125 13.69921875 C-29.2416577 13.85087054 -29.2416577 13.85087054 -31 16 C-31.5115337 17.58800296 -31.96295389 19.19582497 -32.375 20.8125 C-34.13991168 26.8549316 -36.30214802 30.24477767 -41.875 33.3125 C-45.45661086 34.92124573 -48.05313813 35.83975784 -52 35 C-55.74780013 33.01769249 -58.36754951 30.78682613 -59.8046875 26.7265625 C-60.82235348 20.1428867 -59.41762301 14.66297427 -56 9 C-50.5422602 1.9038083 -44.33114916 -1.96817508 -36 -5 C-34.845 -5.433125 -33.69 -5.86625 -32.5 -6.3125 C-20.79570264 -8.61155841 -10.01854463 -6.4058474 0 0 Z "
     style="fill: #E79188;"
     id="path5"
     transform="translate(285,55)" />
  <path
     d="M0 0 C12.72413566 9.87464613 19.26814273 22.30123126 21.3125 38.3125 C23.04661406 64.84719764 13.84126653 89.90156147 -3.375 109.9375 C-12.65027385 119.86439997 -26.11086699 127.85453419 -39.97094727 128.40283203 C-42.5857041 128.44661682 -45.19742265 128.44891955 -47.8125 128.4375 C-49.15248047 128.44330078 -49.15248047 128.44330078 -50.51953125 128.44921875 C-51.38191406 128.44792969 -52.24429687 128.44664062 -53.1328125 128.4453125 C-53.91156738 128.44418457 -54.69032227 128.44305664 -55.49267578 128.44189453 C-57.6875 128.3125 -57.6875 128.3125 -61.6875 127.3125 C-61.6875 121.3725 -61.6875 115.4325 -61.6875 109.3125 C-59.74875 108.77625 -57.81 108.24 -55.8125 107.6875 C-46.02296811 104.64423248 -37.27163558 100.22727482 -31.6875 91.3125 C-27.39860258 82.28839858 -24.77046133 73.43001592 -27.421875 63.5859375 C-29.94905325 56.56369629 -33.30716387 52.41133975 -40 49 C-41.22447975 48.42736899 -42.4521191 47.86121757 -43.6875 47.3125 C-41.58390633 39.83305583 -35.26316544 33.90449545 -28.66015625 30.1640625 C-25.38962471 28.75222908 -23.17996857 28.67750571 -19.6875 29.3125 C-17.81972412 30.50033992 -16.12256307 31.81443747 -14.390625 33.19140625 C-11.78121415 34.9090689 -9.69983771 34.80288056 -6.6875 34.3125 C-4.28317441 32.33880257 -4.28317441 32.33880257 -4.375 28.5625 C-4.49285608 24.49646514 -5.41922649 21.75401843 -7.6875 18.3125 C-12.45777035 13.89999993 -16.33854587 12.8893933 -22.67578125 12.97265625 C-34.32823048 14.28752406 -45.42852318 20.1316737 -53.0625 29 C-53.48273438 29.54011719 -53.90296875 30.08023438 -54.3359375 30.63671875 C-55.98245892 32.67821496 -57.82425807 34.46896863 -59.6875 36.3125 C-61.58274519 10.95332414 -61.58274519 10.95332414 -57.66015625 5.7265625 C-54.77248698 3.36505392 -52.08703127 1.83940811 -48.6875 0.3125 C-47.62273437 -0.27917969 -46.55796875 -0.87085938 -45.4609375 -1.48046875 C-31.11704633 -9.25749163 -13.59098603 -9.37372885 0 0 Z "
     transform="translate(546.6875,285.6875)"
     style="fill: #B5734C;"
     id="path6" />
  <path
     d="M0 0 C1.15012573 0.7417749 1.15012573 0.7417749 2.32348633 1.49853516 C6.16661808 4.33843671 8.63862129 6.4078547 9.72143555 11.1784668 C9.88507771 14.82502305 9.78753491 18.35712722 9.5625 22 C9.5015918 23.87751953 9.5015918 23.87751953 9.43945312 25.79296875 C9.33388988 28.86603219 9.1863985 31.93095658 9 35 C8.34 35 7.68 35 7 35 C5.76026734 33.32918524 4.58353764 31.61142067 3.4375 29.875 C-0.42083766 24.43983718 -4.17909583 21.15554279 -10 18 C-10.69351563 17.61199219 -11.38703125 17.22398437 -12.1015625 16.82421875 C-20.48201694 12.37513579 -28.53840541 11.03677065 -38 12 C-43.46764155 14.3980884 -45.62958344 17.71214767 -48 23 C-48.43686512 26.24528378 -48.55399547 28.02236093 -46.9375 30.875 C-43.8385295 32.67440223 -41.50712967 32.42327427 -38 32 C-37.195625 31.34 -36.39125 30.68 -35.5625 30 C-32.6734798 27.74515497 -30.75362692 27.3436497 -27.1015625 27.5625 C-19.27614427 29.19158335 -12.97083059 36.14316488 -8 42 C-8 42.66 -8 43.32 -8 44 C-9.71758368 44.95651643 -11.47608244 45.84001321 -13.25 46.6875 C-18.61025671 49.50868774 -20.68042523 51.45319076 -23 57 C-23.35320312 57.76828125 -23.70640625 58.5365625 -24.0703125 59.328125 C-26.87576353 67.3908498 -25.51252635 77.34194785 -22 85 C-16.43718278 94.67383977 -9.66253365 101.42289194 1 105 C4.32793078 105.81803885 7.61640238 106.42812435 11 107 C11 112.28 11 117.56 11 123 C-1.75342386 128.10136955 -15.5625474 126.83541793 -28.171875 121.7109375 C-46.51578405 113.00456442 -58.3652891 97.59251911 -66 79 C-71.78151534 61.73688376 -76.21461677 40.46560103 -69 23 C-68.55914062 21.89527344 -68.11828125 20.79054688 -67.6640625 19.65234375 C-62.37767034 7.80308912 -54.23480469 -1.85551191 -42.15625 -7.23046875 C-27.74128203 -12.37494101 -12.3033489 -8.33875445 0 0 Z "
     transform="translate(103,288)"
     style="fill: #B5734C;"
     id="path7" />
  <path
     d="M0 0 C6.84988302 5.633262 12.38266404 12.25594623 13.671875 21.28662109 C14.64757497 32.69499294 13.49577008 42.39811926 6.0546875 51.46484375 C0.13786645 57.72301987 -5.61076089 61.70478267 -14.40234375 62.48828125 C-22.18544977 62.66204539 -28.90817316 62.47821395 -35.6328125 58.15234375 C-36.32761719 57.72824219 -37.02242188 57.30414063 -37.73828125 56.8671875 C-44.84013276 52.08376407 -49.43271207 45.4175859 -51.6328125 37.15234375 C-53.03494818 26.15851098 -52.25560521 16.36788935 -45.6328125 7.15234375 C-34.21888435 -7.07983826 -15.27932245 -10.72272926 0 0 Z "
     transform="translate(389.6328125,307.84765625)"
     style="fill: #2D241E;"
     id="path8" />
  <path
     d="M0 0 C7.84848186 5.73020648 13.61701313 12.44373632 16 22 C17.10021266 32.7600798 16.4354676 42.5952584 10.1171875 51.71875 C4.01809836 59.15133175 -2.30295253 63.37326832 -11.94140625 64.43359375 C-19.62039232 64.80496859 -26.39925964 64.23293971 -33 60 C-34.04220703 59.38125 -34.04220703 59.38125 -35.10546875 58.75 C-42.06287933 54.15523729 -46.49240049 46.88754028 -49 39 C-50.09886391 26.38861997 -49.17956309 16.71176908 -40.875 6.6875 C-30.11949232 -4.61911634 -13.80790582 -7.95000638 0 0 Z "
     transform="translate(243,306)"
     style="fill: #2E241E;"
     id="path9" />
  <path
     d="M0 0 C3.27732251 0.48370121 4.15167641 1.49507673 6.40625 3.8828125 C21.99672272 18.44251017 44.84984838 21.77832236 65.07104492 24.98144531 C66.86920396 25.26753584 68.6626904 25.5836725 70.45214844 25.91992188 C76.79339458 26.85425531 83.25579752 26.62775658 89.65625 26.6328125 C90.80048431 26.63382462 90.80048431 26.63382462 91.96783447 26.63485718 C104.39350249 26.61741043 116.40109734 25.95361243 128.59375 23.3828125 C129.44066406 23.20588867 130.28757812 23.02896484 131.16015625 22.84667969 C147.85492147 19.24523816 166.15176422 14.18355962 179.03125 2.3828125 C181.59375 0.3828125 181.59375 0.3828125 184.28125 0.2578125 C187.41679314 1.78321187 188.24380884 3.18558345 189.59375 6.3828125 C190.31491167 9.62803999 190.17037735 11.45031283 188.41015625 14.296875 C178.81773754 26.21263733 163.36919951 31.92138274 149.09375 36.0078125 C148.05927734 36.30703613 147.02480469 36.60625977 145.95898438 36.91455078 C136.59872347 39.53651692 127.23072978 41.20408475 117.59375 42.3828125 C116.35206055 42.55337158 115.11037109 42.72393066 113.83105469 42.8996582 C109.79111688 43.40225765 105.77188151 43.57566211 101.703125 43.62109375 C100.60210953 43.63585251 100.60210953 43.63585251 99.47885132 43.65090942 C64.35104549 44.02346517 23.13027739 41.94566897 -3.71875 16.23046875 C-5.84861093 13.89846824 -6.35967875 12.79263949 -6.71875 9.6328125 C-6.28896531 5.16305175 -4.87661237 0.77582469 0 0 Z "
     transform="translate(207.40625,439.6171875)"
     style="fill: #2D241D;"
     id="path10" />
  <path
     d="M0 0 C3.625 0.4375 3.625 0.4375 6.0625 2.25 C8.89542216 8.0291612 8.48665248 14.53986779 6.5625 20.625 C3.64510577 27.26411678 -1.29247087 32.54113754 -7.8515625 35.61328125 C-10.375 36.4375 -10.375 36.4375 -14.1484375 37.10546875 C-18.20655062 37.832092 -21.6590238 38.58636794 -25.375 40.4375 C-26.86694275 43.80240472 -27.05463172 46.50300952 -27.2109375 50.16796875 C-27.49993569 55.92728986 -29.84445332 59.78285494 -33.6875 63.9375 C-37.21393553 65.90574309 -39.39525028 66.01637269 -43.375 65.4375 C-45.8125 63.8125 -45.8125 63.8125 -47.375 61.4375 C-48.07996882 57.38392927 -47.588749 55.78915158 -45.4375 52.25 C-44.756875 51.321875 -44.07625 50.39375 -43.375 49.4375 C-41.60127049 44.11631146 -41.49038428 39.27750069 -43.9375 34.1875 C-48.88417012 28.6066414 -54.14078999 25.88615134 -61.140625 23.4296875 C-63.51248709 22.37644804 -64.80110931 21.4925802 -66.375 19.4375 C-67.03156761 13.30953562 -67.03156761 13.30953562 -65.11328125 10.76171875 C-62.29429583 8.61422199 -60.00279276 8.72598549 -56.53515625 8.828125 C-48.44020181 10.38908037 -38.87666644 14.71822832 -33.875 21.4375 C-31.60217829 24.81800965 -31.60217829 24.81800965 -27.5625 25.125 C-21.36574865 24.53144144 -16.12806466 21.92946992 -11.4375 17.9375 C-7.92153249 13.67572119 -6.93118647 9.80200226 -5.9375 4.4609375 C-4.92735641 0.82722651 -3.66528325 0.47512931 0 0 Z "
     transform="translate(437.375,166.5625)"
     style="fill: #2D241D;"
     id="path11" />
  <path
     d="M0 0 C3.25 0.9375 3.25 0.9375 5.25 2.9375 C5.70323908 8.46701679 5.60063859 11.34129793 2.25 15.9375 C-3.45198443 20.5863725 -9.4015973 23.36735255 -16.46484375 25.203125 C-21.40629424 26.79114669 -24.87071357 29.97242953 -28.3125 33.75 C-30.75 35.9375 -30.75 35.9375 -33.8125 36.5625 C-36.75 35.9375 -36.75 35.9375 -39.1875 33.9375 C-40.85171168 30.74221358 -41.28912938 28.6155602 -40.59765625 25.05078125 C-37.12551946 16.39444022 -27.77178215 12.37983693 -19.75 8.9375 C-17.1481633 7.92526859 -14.53859976 6.93657822 -11.92578125 5.953125 C-9.7112806 4.91942631 -8.31439077 3.80755472 -6.5625 2.125 C-3.75 -0.0625 -3.75 -0.0625 0 0 Z "
     transform="translate(370.75,139.0625)"
     style="fill: #2C231D;"
     id="path12" />
  <path
     d="M0 0 C2.98514571 1.54879991 4.91919848 3.38181431 7 6 C7.639375 6.78375 8.27875 7.5675 8.9375 8.375 C10.52051646 12.28598185 10.5366317 14.77402532 10 19 C7.61054251 21.73080856 6.02666021 22.76900145 2.5 23.5625 C0 23 0 23 -2.5 20.4375 C-3.7375 19.2309375 -3.7375 19.2309375 -5 18 C-8.15063392 18.12582404 -9.55245314 18.54259528 -11.7734375 20.8125 C-12.30195313 21.534375 -12.83046875 22.25625 -13.375 23 C-15.9073154 26.06194999 -16.80590494 26.93091532 -20.6875 28.3125 C-24 28 -24 28 -26.4375 26.0625 C-28.41097668 22.19448571 -28.96911028 19.1919654 -28 15 C-22.70267694 3.20595998 -12.8024932 -2.49120679 0 0 Z "
     transform="translate(330,370)"
     style="fill: #2B221C;"
     id="path13" />
  <path
     d="M0 0 C6.32275017 1.89007478 10.95192797 7.42632329 14.1484375 13.00390625 C15.88841683 17.08248165 15.41320505 20.85760956 13.9375 24.9375 C12 27 12 27 8.8125 27.875 C3.694533 26.70038462 2.05174835 24.08201853 -1.0078125 19.96875 C-2.8545808 17.7655404 -2.8545808 17.7655404 -5.62109375 17.5625 C-8.27150626 17.77670509 -8.27150626 17.77670509 -9.9375 20.5 C-12 23 -12 23 -14.9375 23.5625 C-18.78197528 22.85637189 -20.4268383 21.95156784 -23 19 C-24.05413671 14.11263891 -22.84376073 11.30893854 -20.25 7.25 C-14.73508146 -0.71599345 -9.33650666 -1.00441636 0 0 Z "
     transform="translate(281,370)"
     style="fill: #2C221C;"
     id="path14" />
  <path
     d="M0 0 C2.475 0.99 2.475 0.99 5 2 C7.80993945 2.13760722 10.51001924 2.19011573 13.3125 2.125 C14.42334961 2.11146484 14.42334961 2.11146484 15.55664062 2.09765625 C17.37123467 2.07424213 19.18566071 2.03837615 21 2 C21.65043719 3.72744016 22.29514844 5.4570369 22.9375 7.1875 C23.29714844 8.15042969 23.65679687 9.11335937 24.02734375 10.10546875 C24.91156562 12.7368278 25.52568586 15.26894908 26 18 C24.27255984 18.65043719 22.5429631 19.29514844 20.8125 19.9375 C19.84957031 20.29714844 18.88664062 20.65679687 17.89453125 21.02734375 C11.4405922 23.1960763 7.3391355 23 0 23 C0 15.41 0 7.82 0 0 Z "
     transform="translate(307,232)"
     style="fill: #E79289;"
     id="path15" />
  <path
     d="M0 0 C0 7.59 0 15.18 0 23 C-11.24911032 23 -11.24911032 23 -16.9375 21.0625 C-18.01902344 20.70285156 -19.10054688 20.34320313 -20.21484375 19.97265625 C-21.13394531 19.65167969 -22.05304688 19.33070313 -23 19 C-23.99 18.67 -24.98 18.34 -26 18 C-25.46014556 15.30072779 -24.61198258 13.11079342 -23.5 10.5625 C-22.25005705 7.59388549 -21.55890779 5.1331081 -21 2 C-19.33710938 2.03480469 -19.33710938 2.03480469 -17.640625 2.0703125 C-16.17709008 2.08907577 -14.71354786 2.10727537 -13.25 2.125 C-12.52039063 2.14175781 -11.79078125 2.15851563 -11.0390625 2.17578125 C-7.01366648 2.21237576 -3.44886965 0 0 0 Z "
     transform="translate(291,232)"
     style="fill: #E8938A;"
     id="path16" />
  <path
     d="M0 0 C0.78503906 0.04382813 1.57007812 0.08765625 2.37890625 0.1328125 C4.4375 0.875 4.4375 0.875 5.67578125 3.08203125 C8.02413957 11.69267844 7.5788206 21.01890922 7.4375 29.875 C2.28687927 30.26017685 0.19536769 28.64790798 -3.69921875 25.5234375 C-8.00580878 21.71341445 -11.04170377 17.74940833 -11.8203125 11.95703125 C-12.0364941 8.11620479 -11.81946177 6.29145529 -9.75 2.9375 C-6.59043591 -0.04151757 -4.17185668 -0.31615388 0 0 Z "
     transform="translate(106.5625,349.125)"
     style="fill: #B4734B;"
     id="path17" />
  <path
     d="M0 0 C4.36777505 2.26188351 4.36777505 2.26188351 6 5 C7.36981696 10.84023312 6.61082519 15.76435861 3.5 20.875 C0.39615451 24.98151291 -3.24318585 27.98165029 -8 30 C-8.99 30 -9.98 30 -11 30 C-11.02911003 26.10418244 -11.04683587 22.208393 -11.0625 18.3125 C-11.07087891 17.20970703 -11.07925781 16.10691406 -11.08789062 14.97070312 C-11.09111328 13.90400391 -11.09433594 12.83730469 -11.09765625 11.73828125 C-11.10289307 10.75899658 -11.10812988 9.77971191 -11.11352539 8.77075195 C-11.00194716 6.04752317 -10.73709105 3.62474197 -10 1 C-6.75059877 -0.62470062 -3.511119 -0.539672 0 0 Z "
     transform="translate(496,349)"
     style="fill: #B6734C;"
     id="path18" />
  <path
     d="M0 0 C3.03379359 0.66656245 4.21477419 1.85286302 5.90234375 4.41796875 C6.90234375 7.35546875 6.90234375 7.35546875 6.90234375 10.41796875 C5.13194926 13.16513262 3.83942531 14.94942797 0.90234375 16.41796875 C-3.15029223 16.95832021 -4.63495856 16.7599627 -7.97265625 14.29296875 C-10.09765625 11.41796875 -10.09765625 11.41796875 -10.66015625 8.41796875 C-9.44522545 1.93833782 -6.37100752 -0.43897072 0 0 Z "
     transform="translate(237.09765625,319.58203125)"
     style="fill: #F5EDE0;"
     id="path19" />
  <path
     d="M0 0 C3.4375 0.5625 3.4375 0.5625 5.875 2.0625 C8.07578902 5.58376244 8.24164661 8.51689643 7.4375 12.5625 C5.875 15.0625 5.875 15.0625 3.4375 16.5625 C0 17.125 0 17.125 -3.5625 16.5625 C-6.94371991 14.11651113 -8.33186783 12.66953441 -9.1875 8.5625 C-8.06378731 3.1686791 -5.3834601 0.85002002 0 0 Z "
     transform="translate(378.5625,319.4375)"
     style="fill: #F8F0E3;"
     id="path20" />
  <path
     d="M0 0 C1.68996094 0.00580078 1.68996094 0.00580078 3.4140625 0.01171875 C6.375 0.3125 6.375 0.3125 9.375 2.3125 C8.41078125 2.28929687 7.4465625 2.26609375 6.453125 2.2421875 C5.18984375 2.22414063 3.9265625 2.20609375 2.625 2.1875 C0.74554688 2.15269531 0.74554688 2.15269531 -1.171875 2.1171875 C-5.59378935 2.36729578 -7.53728043 3.22478043 -10.625 6.3125 C-11.94247324 7.00998583 -13.27414193 7.68209957 -14.625 8.3125 C-11.21970883 1.68114351 -7.3573691 -0.1099377 0 0 Z "
     transform="translate(71.625,298.6875)"
     style="fill: #1D1917;"
     id="path23" />
  <path
     d="M0 0 C2 2 2 2 2.125 5.125 C2.08375 6.07375 2.0425 7.0225 2 8 C1.01 7.01 0.02 6.02 -1 5 C-3.64 7.31 -6.28 9.62 -9 12 C-9 8.47601214 -8.44884893 7.98495633 -6.1875 5.4375 C-5.40439453 4.53837891 -5.40439453 4.53837891 -4.60546875 3.62109375 C-3 2 -3 2 0 0 Z "
     transform="translate(149,122)"
     style="fill: #E99B91;"
     id="path24" />
  <path
     d="M0 0 C2.5 0.1875 2.5 0.1875 5 1 C5.8125 3.0625 5.8125 3.0625 6 5 C5.34 4.34 4.68 3.68 4 3 C0.41411676 3.38766305 -2.69987921 4.58566252 -6 6 C-4 4 -2 2 0 0 Z "
     transform="translate(389,440)"
     style="fill: #191311;"
     id="path31" />
  <path
     d="M0 0 C0.99 0.99 1.98 1.98 3 3 C2.54625 3.598125 2.0925 4.19625 1.625 4.8125 C0.36704087 6.50590652 -0.82984724 8.24477086 -2 10 C-1.125 2.25 -1.125 2.25 0 0 Z "
     transform="translate(449,460)"
     style="fill: #F6F4EC;"
     id="path35" />
</svg>
